<mxfile host="app.diagrams.net" modified="2023-02-07T07:30:06.487Z" agent="5.0 (Windows NT 10.0; Win64; x64) AppleWebKit/537.36 (KHTML, like Gecko) Chrome/101.0.0.0 Safari/537.36" version="20.8.5" etag="DgwoQ-py9bm9INaJIZ9H" type="github">
  <diagram id="-61dzga5HtwPUpr-MoH3" name="第 1 页">
    <mxGraphModel dx="1354" dy="635" grid="1" gridSize="10" guides="1" tooltips="1" connect="1" arrows="1" fold="1" page="1" pageScale="1" pageWidth="827" pageHeight="1169" math="0" shadow="0">
      <root>
        <mxCell id="0" />
        <mxCell id="1" parent="0" />
        <mxCell id="Cbfac82ZlixoqRNm_JCT-5" value="" style="edgeStyle=orthogonalEdgeStyle;rounded=0;orthogonalLoop=1;jettySize=auto;html=1;" edge="1" parent="1" source="Cbfac82ZlixoqRNm_JCT-1" target="Cbfac82ZlixoqRNm_JCT-2">
          <mxGeometry relative="1" as="geometry" />
        </mxCell>
        <mxCell id="Cbfac82ZlixoqRNm_JCT-1" value="开始" style="strokeWidth=2;html=1;shape=mxgraph.flowchart.start_1;whiteSpace=wrap;" vertex="1" parent="1">
          <mxGeometry x="220" y="50" width="100" height="60" as="geometry" />
        </mxCell>
        <mxCell id="Cbfac82ZlixoqRNm_JCT-6" value="" style="edgeStyle=orthogonalEdgeStyle;rounded=0;orthogonalLoop=1;jettySize=auto;html=1;" edge="1" parent="1" source="Cbfac82ZlixoqRNm_JCT-2" target="Cbfac82ZlixoqRNm_JCT-3">
          <mxGeometry relative="1" as="geometry" />
        </mxCell>
        <mxCell id="Cbfac82ZlixoqRNm_JCT-2" value="参数校验" style="rounded=1;whiteSpace=wrap;html=1;absoluteArcSize=1;arcSize=14;strokeWidth=2;" vertex="1" parent="1">
          <mxGeometry x="220" y="150" width="100" height="60" as="geometry" />
        </mxCell>
        <mxCell id="Cbfac82ZlixoqRNm_JCT-7" value="" style="edgeStyle=orthogonalEdgeStyle;rounded=0;orthogonalLoop=1;jettySize=auto;html=1;" edge="1" parent="1" source="Cbfac82ZlixoqRNm_JCT-3" target="Cbfac82ZlixoqRNm_JCT-4">
          <mxGeometry relative="1" as="geometry" />
        </mxCell>
        <mxCell id="Cbfac82ZlixoqRNm_JCT-3" value="添加数据库资源配置信息" style="rounded=1;whiteSpace=wrap;html=1;absoluteArcSize=1;arcSize=14;strokeWidth=2;" vertex="1" parent="1">
          <mxGeometry x="220" y="260" width="100" height="60" as="geometry" />
        </mxCell>
        <mxCell id="Cbfac82ZlixoqRNm_JCT-9" value="" style="edgeStyle=orthogonalEdgeStyle;rounded=0;orthogonalLoop=1;jettySize=auto;html=1;" edge="1" parent="1" source="Cbfac82ZlixoqRNm_JCT-4" target="Cbfac82ZlixoqRNm_JCT-8">
          <mxGeometry relative="1" as="geometry" />
        </mxCell>
        <mxCell id="Cbfac82ZlixoqRNm_JCT-4" value="修改数据型资源名和描述" style="rounded=1;whiteSpace=wrap;html=1;absoluteArcSize=1;arcSize=14;strokeWidth=2;" vertex="1" parent="1">
          <mxGeometry x="220" y="370" width="100" height="50" as="geometry" />
        </mxCell>
        <mxCell id="Cbfac82ZlixoqRNm_JCT-8" value="结束" style="strokeWidth=2;html=1;shape=mxgraph.flowchart.terminator;whiteSpace=wrap;" vertex="1" parent="1">
          <mxGeometry x="220" y="460" width="100" height="60" as="geometry" />
        </mxCell>
      </root>
    </mxGraphModel>
  </diagram>
</mxfile>
